# xmcd
#
# Track frame offsets:
#	150
#	17867
#	29695
#	45948
#	69842
#	80914
#	95323
#	108943
#	124049
#	142047
#	152177
#	163540
#	180151
#	200148
#	224367
#	240524
#	262912
#	280907
#
# Disc length: 3881 seconds
#
# Revision: 1
# Processed by: cddbd v1.5.2PL0 Copyright (c) Steve Scherf et al.
# Submitted via: audiograbber 1.83.01
#
DISCID=f60f2712
DTITLE=Martin Stempel - Nice to be around
DYEAR=2008
DGENRE=Swing
TTITLE0=What a wonderful world
TTITLE1=Steppin' out with my baby
TTITLE2=The lady is a tramp
TTITLE3=Nice to be around
TTITLE4=A big beautiful ball
TTITLE5=The bare necessities
TTITLE6=Dream a little dream of me
TTITLE7=New York, New York
TTITLE8=Over the rainbow
TTITLE9=Fly me to the moon
TTITLE10=Where or when
TTITLE11=Learnin' the blues
TTITLE12=Blue skies
TTITLE13=Losing my mind
TTITLE14=I've got you under my skin
TTITLE15=I'm gonna live till I die
TTITLE16=Winter wonderland (Bonus)
TTITLE17=The Christmas song (Bonus)
EXTD=Live und Studioaufnahmen 2004-2008
EXTT0=
EXTT1=
EXTT2=
EXTT3=
EXTT4=
EXTT5=
EXTT6=
EXTT7=
EXTT8=
EXTT9=
EXTT10=
EXTT11=
EXTT12=
EXTT13=
EXTT14=
EXTT15=
EXTT16=
EXTT17=
PLAYORDER=
